<?xml version="1.0" encoding="UTF-8" standalone="no"?><!DOCTYPE svg PUBLIC "-//W3C//DTD SVG 1.1//EN" "http://www.w3.org/Graphics/SVG/1.1/DTD/svg11.dtd"><svg width="100%" height="100%" viewBox="0 0 465 1135" version="1.1" xmlns="http://www.w3.org/2000/svg" xmlns:xlink="http://www.w3.org/1999/xlink" xml:space="preserve" xmlns:serif="http://www.serif.com/" style="fill-rule:evenodd;clip-rule:evenodd;stroke-linejoin:round;stroke-miterlimit:2;"><path d="M153.72,153.475l-69.254,19.4c13.87,-30.596 35.495,-70.579 69.379,-110.779l-0.125,91.379Zm-0,184.154c-0.188,0.083 -0.375,0.167 -0.559,0.25c-26.829,12.075 -46.662,17.05 -61.233,17.05l-0.017,0c-48.483,0 -38.591,-55.108 -33.575,-87.271c0.005,-0.025 0.005,-0.046 0.009,-0.066c0.012,-0.088 0.029,-0.175 0.041,-0.259l95.334,-25.962l-0,96.258Zm80.391,50.546l46.267,-22.708c29.996,-14.48 53.121,-20.73 70.2,-20.734c93.238,-0.016 7.496,185.888 -116.467,235.379l0,-191.937Zm120.688,-126.763c-34.242,0 -75.154,10.909 -120.829,35.967l-0,-77.567l89.425,-23.612l0.016,-87.396l-89.17,24.017l-0.046,-132.821l-83.404,23.242c-4.121,1.941 -9.184,5.579 -14.917,10.662c-19.138,16.983 -45.738,50.125 -69.629,90.229c-19.617,32.917 -37.409,70.521 -47.754,107.734c-49.117,176.679 9.141,212.162 63.862,212.162c36.742,0 71.888,-15.992 71.888,-15.992l-0,272.534c-0,359.229 -100.038,406.979 -100.038,406.979c0,17.883 69.721,26.825 139.446,26.825c69.725,-0 139.45,-8.942 139.45,-26.825c-0,-0 -99.129,-47.142 -99.129,-406.675l-0,-70.325c293.742,-147.242 275.216,-369.138 120.829,-369.138Z" style="fill:#58595b;fill-rule:nonzero;"/></svg>