<?xml version="1.0" encoding="UTF-8" standalone="no"?><!DOCTYPE svg PUBLIC "-//W3C//DTD SVG 1.1//EN" "http://www.w3.org/Graphics/SVG/1.1/DTD/svg11.dtd"><svg width="100%" height="100%" viewBox="0 0 3546 1492" version="1.1" xmlns="http://www.w3.org/2000/svg" xmlns:xlink="http://www.w3.org/1999/xlink" xml:space="preserve" xmlns:serif="http://www.serif.com/" style="fill-rule:evenodd;clip-rule:evenodd;stroke-miterlimit:2;"><g><rect x="0" y="3.479" width="3543.31" height="1488.19" style="fill:#fff;fill-rule:nonzero;"/><path d="M203.571,1089.17l49.046,-1.858l-3.15,-83.071c23.971,-0.908 39.325,-3.492 46.6,-8.059c11.05,-6.991 16.296,-21.487 15.462,-43.466l-0.954,-25.121c-1.179,-31.117 -17.196,-45.946 -48.329,-44.767l-66.404,2.521l7.729,203.821Zm42.612,-171.425l8.817,-0.333c7.992,-0.305 12.275,3.533 12.592,11.812l1.05,27.692c0.312,8.279 -3.667,12.433 -11.659,12.733l-8.816,0.338l-1.984,-52.242Z" style="fill:#58595b;fill-rule:nonzero;"/><path d="M336.646,1032.96c0.696,18.267 6.458,32.059 17.562,41.071c10.542,8.75 24.492,12.792 42.4,12.113c17.913,-0.679 31.78,-6.063 41.892,-15.884c9.837,-9.804 14.554,-23.708 13.871,-41.691l-2.467,-65.084c-0.696,-18.271 -6.45,-31.775 -17,-40.808c-10.829,-9.025 -25.054,-13.058 -42.962,-12.379c-17.913,0.679 -31.517,5.771 -41.363,15.292c-10.379,10.112 -15.083,24.3 -14.4,42.283l2.467,65.087Zm46.071,-80.366c-0.284,-7.421 2.608,-11.246 8.391,-11.467c5.788,-0.217 8.959,3.379 9.242,10.8l3.354,88.496c0.284,7.421 -2.608,11.246 -8.392,11.467c-5.787,0.22 -8.958,-3.38 -9.241,-10.8l-3.354,-88.496Z" style="fill:#58595b;fill-rule:nonzero;"/><path d="M534.383,951.983c0.054,1.43 0.121,3.142 0.217,5.713c0.1,2.566 0.163,4.279 0.208,5.421l45.463,-1.725c-0.804,-21.121 -4.946,-35.83 -12.713,-44.113c-8.337,-8.833 -22.562,-12.866 -42.675,-12.104c-35.545,1.35 -52.55,18.575 -51.283,51.975c0.617,16.271 6.337,28.917 17.167,37.942c3.7,3.004 13.571,8.633 30.162,16.866c10.688,5.313 16.163,11.392 16.413,17.959l0.137,3.712c0.196,5.138 -0.479,9.167 -1.758,11.788l-6.504,3.104c-5.788,0.221 -9.025,-5.088 -9.446,-16.221c-0.067,-1.712 0.112,-4.292 0.258,-7.729c0.146,-3.438 0.05,-6.004 -0.016,-7.717l-45.463,1.721l0.692,18.271c0.641,16.842 5.791,28.942 15.716,35.996c8.513,6.254 21.309,8.912 38.117,8.275c19.283,-0.734 33.208,-4.692 42.029,-12.171c9.879,-8.667 14.596,-22.567 13.871,-41.692c-0.638,-16.846 -6.658,-30.05 -18.058,-39.625c-4.284,-3.841 -14.709,-9.45 -30.992,-16.833c-10.95,-5.017 -16.679,-10.517 -16.896,-16.229l-0.129,-3.425c-0.333,-8.85 1.983,-13.225 7.217,-13.421c5.237,-0.2 7.9,4.558 8.266,14.262Z" style="fill:#58595b;fill-rule:nonzero;"/><path d="M605.3,971.025l45.462,-1.725c-0.087,-2.283 -0.491,-5.7 -0.949,-10.542c-0.463,-4.841 -0.867,-8.258 -0.963,-10.825c-0.554,-14.558 1.929,-21.8 7.717,-22.021c5.512,-0.208 8.396,3.113 8.646,9.68l0.8,21.125c0.237,6.279 -4.792,11.9 -15.355,17.162c-17.054,8.65 -26.787,13.879 -28.662,15.379c-10.467,7.83 -15.321,18.021 -14.846,30.584l0.854,22.55c0.413,10.846 3.492,19.308 9.254,25.662c5.484,6.367 13.592,9.204 23.788,8.821c11.296,-0.429 21.316,-5.383 30.617,-14.883l0.358,9.416l47.391,-1.795l-4.637,-122.18c-0.692,-18.271 -6.15,-31.212 -16.638,-38.533c-9.074,-6.517 -22.708,-9.429 -40.891,-8.742c-18.463,0.7 -31.821,4.925 -40.083,12.671c-9.063,8.346 -13.238,21.942 -12.534,40.496l0.671,17.7Zm53.233,28.571c1.854,-2.071 4.788,-4.758 8.813,-7.767l1.654,43.675c0.217,5.708 -2.429,8.667 -7.942,8.879c-4.958,0.188 -7.558,-2.858 -7.795,-9.141l-0.659,-17.413c-0.271,-7.137 1.704,-13.212 5.929,-18.233Z" style="fill:#58595b;fill-rule:nonzero;"/><path d="M812.638,1053.21l0.487,12.846l49.042,-1.858l-6.342,-167.283l-49.046,1.858l4.742,125.037c0.312,8.275 -1.738,12.359 -6.421,12.534c-5.238,0.2 -7.867,-3.704 -8.171,-11.696l-4.754,-125.321l-49.046,1.863l4.821,127.033c1.125,29.687 12.433,44.125 34.2,43.296c14.054,-0.529 24.029,-6.625 30.488,-18.309Z" style="fill:#58595b;fill-rule:nonzero;"/><path d="M893.512,1063.01l49.046,-1.862l-4.741,-125.033c-0.317,-8.28 1.737,-12.359 6.421,-12.538c5.233,-0.196 7.866,3.704 8.17,11.7l4.754,125.317l49.042,-1.859l-4.817,-127.033c-1.124,-29.687 -12.712,-44.113 -35.029,-43.267c-13.225,0.5 -23.204,6.596 -29.658,18.275l-0.488,-12.846l-49.045,1.863l6.345,167.283Z" style="fill:#58595b;fill-rule:nonzero;"/><path d="M1146.03,985.104l-47.391,1.796l1.158,8.817c0.396,3.133 0.537,6.841 0.7,11.125c0.55,14.558 -2.209,21.808 -8.546,22.05c-5.233,0.2 -7.854,-3.417 -8.125,-10.554l-1.658,-43.68l63.375,-2.4l-1.334,-35.112c-0.662,-17.417 -6.129,-30.642 -16.429,-40.258c-10.562,-9.321 -24.246,-13.659 -41.054,-13.021c-17.358,0.658 -31.225,6.041 -41.063,15.85c-9.837,9.808 -14.554,23.708 -13.87,41.691l2.466,65.088c0.684,17.983 6.45,31.771 17.563,41.071c10.267,8.758 24.216,12.804 42.125,12.125c36.646,-1.392 54.129,-20.638 52.729,-57.463l-0.646,-17.125Zm-48.921,-38.454l-15.979,0.604l-0.812,-21.408c-0.271,-7.138 2.066,-10.942 7.025,-11.129c5.787,-0.221 8.696,3.67 8.987,11.379l0.779,20.554Z" style="fill:#58595b;fill-rule:nonzero;"/><path d="M1176.49,1052.27l49.045,-1.863l-4.741,-125.033c-0.317,-8.279 1.737,-12.358 6.421,-12.538c5.233,-0.195 7.866,3.705 8.171,11.701l4.754,125.316l49.041,-1.858l-4.816,-127.033c-1.125,-29.688 -12.713,-44.113 -35.029,-43.267c-13.226,0.5 -23.205,6.596 -29.659,18.275l-0.487,-12.846l-49.046,1.863l6.346,167.283Z" style="fill:#58595b;fill-rule:nonzero;"/><path d="M1303.54,879.933l27.287,166.488l55.933,-2.121l8.955,-91.25l13.087,90.412l54.829,-2.079l12.392,-167.995l-41.879,1.591l-3.4,121.338l-17.542,-120.546l-42.158,1.6l-8.358,121.529l-13.684,-120.692l-45.462,1.725Z" style="fill:#58595b;fill-rule:nonzero;"/><path d="M1611.52,967.45l-47.392,1.796l1.158,8.817c0.396,3.133 0.538,6.841 0.7,11.124c0.55,14.559 -2.208,21.809 -8.545,22.05c-5.234,0.201 -7.855,-3.416 -8.126,-10.554l-1.658,-43.679l63.375,-2.4l-1.333,-35.112c-0.663,-17.417 -6.129,-30.642 -16.429,-40.259c-10.563,-9.32 -24.246,-13.658 -41.054,-13.02c-17.359,0.658 -31.226,6.041 -41.063,15.85c-9.837,9.808 -14.554,23.708 -13.871,41.691l2.467,65.088c0.683,17.983 6.45,31.77 17.562,41.071c10.267,8.758 24.217,12.804 42.125,12.124c36.646,-1.391 54.13,-20.637 52.73,-57.462l-0.646,-17.125Zm-48.921,-38.454l-15.979,0.604l-0.813,-21.408c-0.271,-7.138 2.067,-10.942 7.025,-11.13c5.788,-0.22 8.696,3.671 8.988,11.38l0.779,20.554Z" style="fill:#58595b;fill-rule:nonzero;"/><path d="M1638.01,1034.77l49.046,-1.863l-3.391,-89.35c-0.596,-15.7 6.287,-23.395 20.658,-22.795l7.737,0.279l-2.304,-60.804c-13.958,3.1 -24.1,12.062 -29.887,26.862l-0.813,-21.413l-47.392,1.801l6.346,167.283Z" style="fill:#58595b;fill-rule:nonzero;"/><path d="M1736.09,1031.05l49.046,-1.859l-2.763,-72.795l18.746,72.187l47.392,-1.796l-27.784,-99.575l17.029,-67.541l-42.983,1.629l-13.75,59.412l-3.617,-95.345l-49.045,1.862l7.729,203.821Z" style="fill:#58595b;fill-rule:nonzero;"/><path d="M2234.39,919.238l27.279,-1.034c11.683,9.85 21.233,21.492 28.641,34.934l31.084,55.712l31.137,-1.183l-35.491,-62.688c-2.65,-4.475 -5.592,-9.225 -9.092,-14.237c-3.5,-5.013 -6.4,-8.621 -8.688,-10.821c-2.304,-2.484 -5.97,-4.633 -10.479,-7.033c11.942,-5.313 20.542,-11.359 25.813,-17.846c5.55,-6.5 9.687,-13.805 12.425,-21.625c2.737,-7.825 4.079,-16.167 3.762,-24.442c-0.4,-10.563 -2.971,-20.188 -8,-29.142c-5.02,-8.675 -11.616,-15.283 -19.791,-19.833c-8.175,-4.55 -20.113,-6.383 -36.092,-5.779l-64.475,2.446l8.208,216.383l27.275,-1.033l-3.516,-92.779Zm-3.867,-101.909l28.379,-1.079c12.675,-0.479 21.558,0.9 26.658,4.421c5.376,3.512 9.684,7.925 12.359,12.966c2.958,5.321 4.566,11.263 4.825,18.113c0.304,7.996 -1.079,15.196 -4.4,22.183c-3.05,6.975 -7.525,12.575 -13.183,16.221c-5.371,3.921 -13.846,5.959 -25.142,6.388l-26.454,1l-3.042,-80.213Z" style="fill:#58595b;fill-rule:nonzero;"/><path d="M2396.18,929.392c-0.562,-14.842 0.934,-26.334 4.763,-34.484c3.554,-8.141 8.55,-14.616 15.266,-19.446c6.45,-4.533 13.25,-7.079 20.692,-7.362c6.338,-0.237 12.188,1.254 17.267,4.204c5.091,3.238 8.845,7.671 10.712,13.317c2.158,5.921 3.354,15.596 3.883,29.583l3.334,87.925l25.075,-0.95l-3.758,-99.058c-0.65,-17.129 -3.055,-29.617 -7.48,-37.167c-4.425,-7.55 -10.712,-13.312 -18.304,-17.029c-7.592,-3.713 -16.208,-5.387 -25.579,-5.033c-6.612,0.25 -12.629,1.621 -17.788,3.821c-5.437,2.204 -10.554,5.545 -15.35,10.016c-4.808,4.183 -9.804,10.663 -14.716,19.425l-3.646,-96.204l-25.075,0.954l8.533,224.946l25.071,-0.95l-2.9,-76.508Z" style="fill:#58595b;fill-rule:nonzero;"/><path d="M2621.11,958.6c0.204,5.425 -2.091,10.371 -6.875,15.125c-4.8,4.471 -12.425,7.046 -23.171,7.454c-14.879,0.567 -26.933,-4.408 -35.612,-14.941c-8.95,-10.525 -13.604,-24.071 -14.233,-40.63l104.429,-3.958l-0.325,-8.567c-0.738,-19.408 -4.067,-34.437 -9.713,-45.083c-5.637,-10.367 -13.104,-18.087 -22.391,-22.879c-9.288,-4.796 -19.579,-6.975 -30.6,-6.558c-20.392,0.774 -36.896,9.404 -49.25,25.595c-12.354,16.192 -17.934,36.413 -17.025,60.392c0.887,23.408 7.687,42.592 20.662,57.25c12.704,14.958 30.358,22.004 52.95,21.15c11.021,-0.421 20.867,-2.796 29.267,-6.829c8.4,-4.034 15.083,-9.721 20.046,-17.054c4.966,-7.338 7.175,-14.567 6.916,-21.417l-0.054,-1.429l-25.075,0.95l0.054,1.429Zm-65.054,-85.583c7.421,-8 15.538,-12.309 24.629,-12.655c7.717,-0.291 14.392,1.171 20.3,4.092c5.917,3.204 10.517,8.175 14.075,14.617c3.567,6.725 5.488,13.8 5.759,20.933l0.121,3.142l-78.805,2.987c1.95,-14.079 6.5,-25.116 13.921,-33.116Z" style="fill:#58595b;fill-rule:nonzero;"/><path d="M2668.18,995.696l25.071,-0.95l-5.908,-155.867l-25.075,0.95l5.912,155.867Zm17.85,-191.358l-0.983,-25.975l-25.075,0.95l0.983,25.979l25.075,-0.954Z" style="fill:#58595b;fill-rule:nonzero;"/><path d="M2744.37,916.183c-0.563,-14.841 0.933,-26.333 4.762,-34.483c3.555,-8.142 8.55,-14.617 15.267,-19.446c6.45,-4.533 13.25,-7.079 20.692,-7.362c6.062,-0.229 11.637,1.275 16.991,4.216c5.367,3.225 9.121,7.659 10.988,13.304c2.158,5.921 3.354,15.596 3.883,29.584l3.334,87.925l25.075,-0.95l-3.759,-99.059c-0.65,-17.129 -3.054,-29.616 -7.479,-37.166c-4.425,-7.55 -10.712,-13.313 -18.304,-17.029c-7.592,-3.713 -16.209,-5.388 -25.579,-5.034c-6.613,0.25 -12.629,1.621 -17.788,3.821c-5.437,2.204 -10.554,5.546 -15.35,10.017c-4.808,4.183 -9.804,10.662 -14.717,19.425l-1.024,-27.121l-25.076,0.95l5.913,155.867l25.071,-0.95l-2.9,-76.509Z" style="fill:#58595b;fill-rule:nonzero;"/><path d="M2888.65,762.058l-25.075,0.955l8.534,224.945l25.07,-0.95l-8.529,-224.95Z" style="fill:#58595b;fill-rule:nonzero;"/><path d="M3045.72,981.371c-3.125,-9.6 -5.1,-18.1 -5.646,-25.225c-0.559,-7.413 -1.096,-14.254 -1.342,-20.821l-2.296,-60.517c-0.629,-16.558 -2.979,-27.616 -7.341,-33.458c-4.359,-5.838 -10.88,-10.45 -19.829,-13.542c-8.955,-3.375 -18.942,-4.712 -29.688,-4.304c-10.746,0.408 -20.588,2.784 -29.542,6.838c-8.95,4.058 -16.183,9.762 -21.412,17.396c-5.229,7.629 -7.713,14.87 -7.454,21.72l0.075,2l27.279,-1.037l-0.088,-2.284c-0.237,-6.279 2.313,-11.808 7.913,-16.879c5.329,-5.062 13.233,-7.65 23.15,-8.025c8.542,-0.325 15.783,1.404 21.708,4.896c6.213,3.767 9.496,10.217 9.863,19.921l0.658,17.413l-13.125,3.07c-28.429,7.084 -48.55,14.992 -60.092,23.434c-11.533,8.729 -16.879,20.654 -16.304,35.783c0.5,13.133 5.033,23.538 13.854,30.633c8.559,7.396 18.621,10.73 30.467,10.279c6.888,-0.258 14,-1.958 21.596,-5.391c7.329,-3.138 16.15,-10.617 26.466,-22.446c0.225,5.996 1.884,13.367 4.68,21.55l26.45,-1.004Zm-32.713,-62.221c0.358,9.421 -1.258,17.771 -4.566,25.042c-3.313,7.275 -8.334,13.183 -14.505,17.704c-6.454,4.533 -12.987,6.783 -19.879,7.041c-3.854,0.151 -8.021,-0.549 -11.954,-2.404c-4.208,-1.841 -7.075,-4.591 -9.408,-7.933c-2.067,-3.638 -3.313,-7.308 -3.463,-11.304c-0.304,-7.992 2.734,-15.254 9.404,-21.225c6.671,-5.971 22.138,-12.846 46.7,-20.067l7.088,-2.271l0.583,15.417Z" style="fill:#58595b;fill-rule:nonzero;"/><path d="M3095.53,902.867c-0.562,-14.842 0.934,-26.334 4.763,-34.484c3.554,-8.141 8.55,-14.616 15.266,-19.446c6.451,-4.533 13.25,-7.079 20.692,-7.362c6.063,-0.229 11.638,1.275 16.992,4.217c5.367,3.225 9.121,7.658 10.987,13.304c2.159,5.921 3.355,15.596 3.884,29.583l3.333,87.925l25.075,-0.95l-3.758,-99.058c-0.65,-17.129 -3.054,-29.617 -7.48,-37.167c-4.425,-7.55 -10.712,-13.312 -18.304,-17.029c-7.591,-3.712 -16.208,-5.388 -25.579,-5.033c-6.612,0.25 -12.629,1.621 -17.787,3.821c-5.438,2.204 -10.554,5.545 -15.35,10.016c-4.809,4.183 -9.805,10.663 -14.717,19.425l-1.025,-27.121l-25.075,0.95l5.912,155.867l25.071,-0.95l-2.9,-76.508Z" style="fill:#58595b;fill-rule:nonzero;"/><path d="M3322.95,841.925c-5.592,-9.221 -10.808,-15.883 -15.359,-19.425c-4.824,-3.533 -9.895,-6.2 -15.754,-7.979c-5.862,-1.779 -11.958,-2.409 -18.296,-2.167c-20.112,0.763 -35.249,9.054 -45.674,25.175c-10.705,16.129 -15.467,36.033 -14.567,59.729c0.604,15.988 3.912,30.442 9.633,43.088c5.725,12.646 13.796,21.775 23.413,27.983c9.891,6.2 20.483,8.946 32.054,8.504c5.787,-0.216 11.817,-1.304 17.825,-2.962c6.283,-1.667 11.683,-4.729 16.216,-8.904c4.821,-3.9 9.509,-11.225 14.363,-21.413l1.029,27.117l25.075,-0.95l-8.533,-224.946l-25.071,0.95l3.646,96.2Zm-2.092,82.988c-2.941,9.829 -7.896,17.45 -14.587,22.849c-6.704,5.113 -14.046,7.967 -22.038,8.267c-12.675,0.484 -22.767,-3.708 -31.104,-12.542c-8.325,-8.545 -12.8,-24.67 -13.687,-48.079c-0.759,-19.983 2.812,-34.983 10.424,-45.279c7.888,-10.304 17.888,-15.829 30.284,-16.3c13.504,-0.512 24.187,4.8 32.062,15.938c7.863,10.85 11.996,25.275 12.667,42.975c0.433,11.416 -0.808,22.329 -4.021,32.171Z" style="fill:#58595b;fill-rule:nonzero;"/><path d="M1971.91,348.004l-69.255,19.4c13.871,-30.596 35.496,-70.579 69.38,-110.779l-0.125,91.379Zm-0,184.154c-0.188,0.084 -0.375,0.167 -0.559,0.25c-26.829,12.075 -46.662,17.05 -61.233,17.05l-0.017,0c-48.483,0 -38.592,-55.108 -33.575,-87.27c0.004,-0.025 0.004,-0.046 0.008,-0.067c0.013,-0.088 0.03,-0.175 0.042,-0.258l95.334,-25.963l-0,96.258Zm80.391,50.546l46.267,-22.708c29.996,-14.479 53.121,-20.729 70.2,-20.733c93.237,-0.017 7.496,185.887 -116.467,235.379l0,-191.938Zm120.688,-126.762c-34.242,-0 -75.155,10.908 -120.829,35.966l-0,-77.566l89.425,-23.613l0.016,-87.396l-89.171,24.017l-0.046,-132.821l-83.404,23.242c-4.121,1.941 -9.183,5.579 -14.916,10.662c-19.138,16.984 -45.738,50.125 -69.629,90.23c-19.617,32.916 -37.409,70.52 -47.755,107.733c-49.116,176.679 9.142,212.162 63.863,212.162c36.742,0 71.887,-15.991 71.887,-15.991l0,272.533c0,359.229 -100.037,406.979 -100.037,406.979c-0,17.884 69.721,26.825 139.446,26.825c69.725,0 139.45,-8.941 139.45,-26.825c-0,0 -99.129,-47.141 -99.129,-406.675l-0,-70.325c293.741,-147.242 275.216,-369.137 120.829,-369.137Z" style="fill:#58595b;fill-rule:nonzero;"/><path d="M204.371,1125.95l0.416,11.204l1646.65,-64.037l-0.566,-11.208l-1646.5,64.041Z" style="fill:#58595b;fill-rule:nonzero;"/><path d="M204.371,1125.95l0.416,11.204l1646.65,-64.037l-0.566,-11.208l-1646.5,64.041Z" style="fill:none;stroke:#58595b;stroke-width:8.49px;"/><path d="M3354.17,1003.45l-1142.53,44.433l0.566,11.204l1142.4,-44.433l-0.441,-11.204Z" style="fill:#58595b;fill-rule:nonzero;"/><path d="M3354.17,1003.45l-1142.53,44.433l0.566,11.204l1142.4,-44.433l-0.441,-11.204Z" style="fill:none;stroke:#58595b;stroke-width:8.49px;"/></g></svg>